<?xml version="1.0" standalone="no"?>
<!DOCTYPE svg PUBLIC "-//W3C//DTD SVG 20010904//EN"
 "http://www.w3.org/TR/2001/REC-SVG-20010904/DTD/svg10.dtd">
<svg version="1.0" xmlns="http://www.w3.org/2000/svg"
 width="32.000000pt" height="32.000000pt" viewBox="0 0 32.000000 32.000000"
 preserveAspectRatio="xMidYMid meet">

<g transform="translate(0.000000,32.000000) scale(0.100000,-0.100000)"
fill="#000000" stroke="none">
<path d="M135 290 c-43 -9 -73 -27 -86 -52 -36 -66 -28 -126 22 -174 45 -43
133 -43 178 0 50 48 58 108 22 174 -20 38 -86 63 -136 52z m107 -48 c60 -60
40 -155 -40 -189 -50 -21 -107 -2 -140 47 -40 58 -14 142 53 171 36 16 96 3
127 -29z"/>
</g>
</svg>
